<svg
 xmlns="http://www.w3.org/2000/svg"
 xmlns:xlink="http://www.w3.org/1999/xlink"
 width="3px" height="13px">
<path fill-rule="evenodd"  fill="currentColor"
 d="M1.500,8.125 C0.672,8.125 -0.000,7.397 -0.000,6.500 C-0.000,5.603 0.672,4.875 1.500,4.875 C2.328,4.875 3.000,5.603 3.000,6.500 C3.000,7.397 2.328,8.125 1.500,8.125 ZM1.500,3.250 C0.672,3.250 -0.000,2.522 -0.000,1.625 C-0.000,0.727 0.672,-0.000 1.500,-0.000 C2.328,-0.000 3.000,0.727 3.000,1.625 C3.000,2.522 2.328,3.250 1.500,3.250 ZM1.500,9.750 C2.328,9.750 3.000,10.478 3.000,11.375 C3.000,12.272 2.328,13.000 1.500,13.000 C0.672,13.000 -0.000,12.272 -0.000,11.375 C-0.000,10.478 0.672,9.750 1.500,9.750 Z"/>
</svg>