<svg
 xmlns="http://www.w3.org/2000/svg"
 xmlns:xlink="http://www.w3.org/1999/xlink"
 width="18px" height="20px">
<path fill-rule="evenodd"  fill="currentColor"
 d="M16.000,20.000 L2.000,20.000 C0.900,20.000 -0.000,19.100 -0.000,18.000 L-0.000,4.000 C-0.000,2.900 0.900,2.000 2.000,2.000 L3.000,2.000 L3.000,-0.000 L5.000,-0.000 L5.000,2.000 L13.000,2.000 L13.000,-0.000 L15.000,-0.000 L15.000,2.000 L16.000,2.000 C17.100,2.000 18.000,2.900 18.000,4.000 L18.000,18.000 C18.000,19.100 17.100,20.000 16.000,20.000 ZM16.000,4.000 L2.000,4.000 L2.000,6.000 L16.000,6.000 L16.000,4.000 ZM16.000,8.000 L2.000,8.000 L2.000,18.000 L16.000,18.000 L16.000,8.000 ZM6.000,12.000 L4.000,12.000 L4.000,10.000 L6.000,10.000 L6.000,12.000 ZM6.000,16.000 L4.000,16.000 L4.000,14.000 L6.000,14.000 L6.000,16.000 ZM10.000,12.000 L8.000,12.000 L8.000,10.000 L10.000,10.000 L10.000,12.000 ZM10.000,16.000 L8.000,16.000 L8.000,14.000 L10.000,14.000 L10.000,16.000 ZM14.000,12.000 L12.000,12.000 L12.000,10.000 L14.000,10.000 L14.000,12.000 ZM14.000,16.000 L12.000,16.000 L12.000,14.000 L14.000,14.000 L14.000,16.000 Z"/>
</svg>