<svg xmlns="http://www.w3.org/2000/svg" viewBox="0 0 19.99 24.01"><path d="M18.57,6.67A.72.72,0,0,0,17.86,6H14.29V4.49A4.39,4.39,0,0,0,10,0a4.4,4.4,0,0,0-4.29,4.5V6H2.15a.72.72,0,0,0-.71.68L0,23.18a.78.78,0,0,0,.19.57A.67.67,0,0,0,.72,24H19.29a.67.67,0,0,0,.52-.25.78.78,0,0,0,.19-.57ZM7.15,4.49a2.93,2.93,0,0,1,2.86-3,2.93,2.93,0,0,1,2.85,3V6H7.15Zm-5.64,18,1.29-15H5.72V9.2A1.52,1.52,0,0,0,5,10.49,1.46,1.46,0,0,0,6.43,12a1.47,1.47,0,0,0,1.43-1.5A1.52,1.52,0,0,0,7.15,9.2V7.49h5.71V9.2a1.52,1.52,0,0,0-.71,1.29,1.43,1.43,0,1,0,2.85,0,1.52,1.52,0,0,0-.71-1.29V7.49h2.92l1.29,15Z" transform="translate(-0.01 0.01)" fill-rule="evenodd" fill="currentColor" /></svg>