<svg
 xmlns="http://www.w3.org/2000/svg"
 xmlns:xlink="http://www.w3.org/1999/xlink"
 width="18px" height="20px">
<path fill-rule="evenodd"  fill="currentColor"
 d="M15.000,20.000 L3.000,20.000 C1.340,20.000 -0.000,18.660 -0.000,17.000 L-0.000,14.000 L3.000,14.000 L3.000,-0.000 L4.500,1.500 L6.000,-0.000 L7.500,1.500 L9.000,-0.000 L10.500,1.500 L12.000,-0.000 L13.500,1.500 L15.000,-0.000 L16.500,1.500 L18.000,-0.000 L18.000,17.000 C18.000,18.660 16.660,20.000 15.000,20.000 ZM2.000,16.000 L2.000,17.000 C2.000,17.550 2.450,18.000 3.000,18.000 L12.000,18.000 L12.000,16.000 L2.000,16.000 ZM16.000,3.000 L5.000,3.000 L5.000,14.000 L14.000,14.000 L14.000,17.000 C14.000,17.550 14.450,18.000 15.000,18.000 C15.550,18.000 16.000,17.550 16.000,17.000 L16.000,3.000 ZM13.000,8.000 L15.000,8.000 L15.000,10.000 L13.000,10.000 L13.000,8.000 ZM13.000,5.000 L15.000,5.000 L15.000,7.000 L13.000,7.000 L13.000,5.000 ZM6.000,8.000 L12.000,8.000 L12.000,10.000 L6.000,10.000 L6.000,8.000 ZM6.000,5.000 L12.000,5.000 L12.000,7.000 L6.000,7.000 L6.000,5.000 Z"/>
</svg>