<svg
 xmlns="http://www.w3.org/2000/svg"
 xmlns:xlink="http://www.w3.org/1999/xlink"
 width="19px" height="21px">
<path fill-rule="evenodd"  fill="currentColor"
 d="M18.536,5.127 C18.455,5.209 18.352,5.250 18.226,5.250 L16.932,5.250 L16.932,18.211 C16.932,18.967 16.720,19.621 16.298,20.173 C15.875,20.724 15.368,21.000 14.774,21.000 L4.367,21.000 C3.774,21.000 3.266,20.733 2.843,20.200 C2.421,19.667 2.210,19.022 2.210,18.266 L2.210,5.250 L0.915,5.250 C0.790,5.250 0.686,5.209 0.605,5.127 C0.524,5.045 0.484,4.940 0.484,4.812 L0.484,3.937 C0.484,3.810 0.524,3.705 0.605,3.623 C0.686,3.541 0.789,3.500 0.915,3.500 L5.082,3.500 L6.026,1.217 C6.161,0.879 6.403,0.592 6.754,0.355 C7.105,0.118 7.460,0.000 7.819,0.000 L11.635,0.000 C11.994,0.000 12.349,0.118 12.700,0.355 C13.050,0.592 13.293,0.880 13.428,1.217 L14.372,3.500 L18.226,3.500 C18.352,3.500 18.455,3.541 18.536,3.623 C18.617,3.705 18.658,3.810 18.658,3.937 L18.658,4.812 C18.658,4.940 18.617,5.045 18.536,5.127 ZM11.850,1.900 C11.787,1.818 11.711,1.768 11.621,1.750 L7.846,1.750 C7.756,1.768 7.680,1.818 7.617,1.900 L6.956,3.500 L12.498,3.500 L11.850,1.900 ZM15.206,18.211 L15.206,5.250 L3.936,5.250 L3.936,18.211 C3.936,18.411 3.967,18.596 4.030,18.765 C4.093,18.933 4.158,19.056 4.226,19.134 C4.293,19.211 4.340,19.250 4.367,19.250 L14.774,19.250 C14.801,19.250 14.848,19.211 14.916,19.134 C14.983,19.056 15.048,18.933 15.111,18.765 C15.174,18.596 15.206,18.412 15.206,18.211 L15.206,18.211 ZM11.901,16.625 L11.038,16.625 C10.912,16.625 10.809,16.584 10.728,16.502 C10.647,16.420 10.606,16.315 10.606,16.188 L10.606,8.312 C10.606,8.185 10.647,8.080 10.728,7.998 C10.809,7.916 10.912,7.875 11.038,7.875 L11.901,7.875 C12.027,7.875 12.130,7.916 12.211,7.998 C12.292,8.080 12.332,8.185 12.332,8.312 L12.332,16.188 C12.332,16.315 12.292,16.420 12.211,16.502 C12.130,16.584 12.027,16.625 11.901,16.625 ZM7.906,16.625 L7.043,16.625 C6.917,16.625 6.813,16.584 6.732,16.502 C6.651,16.420 6.611,16.315 6.611,16.188 L6.611,8.312 C6.611,8.185 6.652,8.080 6.732,7.998 C6.813,7.916 6.917,7.875 7.043,7.875 L7.906,7.875 C8.031,7.875 8.135,7.916 8.216,7.998 C8.296,8.080 8.337,8.185 8.337,8.312 L8.337,16.188 C8.337,16.315 8.296,16.420 8.216,16.502 C8.135,16.584 8.031,16.625 7.906,16.625 Z"/>
</svg>