<svg
 xmlns="http://www.w3.org/2000/svg"
 xmlns:xlink="http://www.w3.org/1999/xlink"
 width="16px" height="20px">
<path fill-rule="evenodd"  fill="currentColor"
 d="M4.000,14.000 L12.000,14.000 L12.000,16.000 L4.000,16.000 L4.000,14.000 ZM4.000,10.000 L12.000,10.000 L12.000,12.000 L4.000,12.000 L4.000,10.000 ZM10.000,-0.000 L2.000,-0.000 C0.900,-0.000 -0.000,0.900 -0.000,2.000 L-0.000,18.000 C-0.000,19.100 0.890,20.000 1.990,20.000 L14.000,20.000 C15.100,20.000 16.000,19.100 16.000,18.000 L16.000,6.000 L10.000,-0.000 ZM14.000,18.000 L2.000,18.000 L2.000,2.000 L9.000,2.000 L9.000,7.000 L14.000,7.000 L14.000,18.000 Z"/>
</svg>