<svg
 xmlns="http://www.w3.org/2000/svg"
 xmlns:xlink="http://www.w3.org/1999/xlink"
 width="29px" height="28px">
<path fill-rule="evenodd"  stroke-width="2px" stroke="currentColor" fill="none"
 d="M10.768,5.000 L18.754,5.000 C21.515,5.000 23.754,7.239 23.754,10.000 L23.754,18.000 C23.754,20.761 21.515,23.000 18.754,23.000 L10.768,23.000 C8.006,23.000 5.768,20.761 5.768,18.000 L5.768,10.000 C5.768,7.239 8.006,5.000 10.768,5.000 Z"/>
<path fill-rule="evenodd"  fill="currentColor"
 d="M19.487,10.465 L15.977,13.978 L19.487,17.490 C19.829,17.833 19.829,18.387 19.487,18.730 C19.145,19.072 18.591,19.072 18.249,18.730 L14.739,15.217 L11.229,18.730 C10.887,19.072 10.332,19.072 9.990,18.730 C9.648,18.387 9.648,17.832 9.990,17.490 L13.500,13.978 L9.990,10.465 C9.648,10.123 9.648,9.568 9.990,9.225 C10.332,8.883 10.887,8.883 11.229,9.225 L14.739,12.738 L18.249,9.225 C18.591,8.883 19.145,8.883 19.487,9.225 C19.829,9.568 19.829,10.123 19.487,10.465 Z"/>
</svg>