<svg
 xmlns="http://www.w3.org/2000/svg"
 xmlns:xlink="http://www.w3.org/1999/xlink"
 width="17px" height="17px">
<path fill-rule="evenodd"  fill="currentColor"
 d="M16.336,5.275 L6.639,14.974 C6.356,15.256 5.721,15.667 3.290,16.350 C1.996,16.713 0.819,16.975 0.770,16.985 C0.725,16.995 0.679,17.000 0.633,16.999 C0.283,16.999 -0.000,16.716 0.000,16.366 C0.000,16.320 0.005,16.274 0.015,16.229 C0.026,16.180 0.288,15.005 0.651,13.710 C1.333,11.278 1.745,10.643 2.027,10.360 L2.678,9.709 C2.679,9.709 2.679,9.708 2.679,9.708 C2.680,9.707 2.680,9.707 2.680,9.707 L11.724,0.663 C12.238,0.149 12.995,-0.083 13.802,0.026 C14.558,0.127 15.301,0.510 15.894,1.104 C16.488,1.699 16.871,2.441 16.973,3.196 C17.082,4.004 16.849,4.761 16.336,5.275 ZM11.151,3.027 L3.575,10.603 C3.575,10.603 3.575,10.603 3.575,10.603 C3.339,10.839 3.240,11.199 3.296,11.616 C3.360,12.091 3.622,12.589 4.014,12.982 C4.782,13.750 5.870,13.950 6.396,13.425 C6.396,13.425 6.396,13.425 6.396,13.425 L13.972,5.848 C13.317,5.698 12.683,5.353 12.165,4.834 C11.646,4.315 11.301,3.682 11.151,3.027 ZM1.486,15.514 C1.908,15.410 2.423,15.277 2.952,15.128 C3.525,14.967 3.978,14.826 4.343,14.701 C3.901,14.512 3.482,14.240 3.120,13.879 C2.759,13.517 2.487,13.098 2.298,12.657 C2.173,13.022 2.031,13.477 1.870,14.052 C1.722,14.580 1.589,15.094 1.486,15.514 ZM14.999,1.999 C14.235,1.235 13.145,1.033 12.619,1.559 C12.093,2.084 12.295,3.174 13.060,3.939 C13.453,4.332 13.951,4.594 14.426,4.656 C14.844,4.713 15.204,4.614 15.439,4.378 C15.673,4.142 15.773,3.782 15.717,3.365 C15.653,2.890 15.391,2.392 14.999,1.999 Z"/>
</svg>