<svg
 xmlns="http://www.w3.org/2000/svg"
 xmlns:xlink="http://www.w3.org/1999/xlink"
 width="20px" height="20px">
<path fill-rule="evenodd"  fill="currentColor"
 d="M10.000,-0.002 C7.329,-0.002 4.817,1.039 2.929,2.927 C1.040,4.816 0.000,7.326 0.000,9.997 C0.000,12.668 1.040,15.179 2.929,17.067 C4.817,18.956 7.328,19.996 9.999,19.996 C12.670,19.996 15.181,18.956 17.070,17.067 C20.969,13.169 20.969,6.826 17.070,2.927 C15.182,1.038 12.670,-0.002 10.000,-0.002 ZM14.213,2.249 L11.998,4.466 C11.383,4.245 10.731,4.123 10.058,4.123 C9.396,4.123 8.754,4.241 8.148,4.455 L5.888,2.195 C7.140,1.533 8.543,1.181 10.000,1.181 C11.497,1.181 12.935,1.552 14.213,2.249 ZM6.851,13.047 C5.082,11.279 5.082,8.401 6.851,6.633 C7.708,5.777 8.847,5.305 10.058,5.305 C11.270,5.305 12.409,5.777 13.265,6.633 C15.034,8.401 15.034,11.279 13.265,13.048 C12.409,13.904 11.270,14.376 10.058,14.376 C8.847,14.376 7.708,13.904 6.851,13.047 ZM2.447,5.442 L4.743,7.738 C4.234,9.031 4.217,10.471 4.685,11.777 L2.251,14.210 C1.554,12.932 1.182,11.494 1.182,9.997 C1.182,8.366 1.623,6.803 2.447,5.442 ZM5.543,17.607 L7.984,15.167 C8.637,15.421 9.337,15.558 10.058,15.558 C10.791,15.558 11.501,15.418 12.162,15.156 L14.555,17.549 C13.194,18.373 11.631,18.813 10.000,18.813 C8.407,18.813 6.881,18.393 5.543,17.607 ZM17.801,14.106 L15.441,11.747 C15.895,10.460 15.878,9.044 15.384,7.768 L17.609,5.543 C19.146,8.169 19.210,11.427 17.801,14.106 Z"/>
</svg>