<svg
 xmlns="http://www.w3.org/2000/svg"
 xmlns:xlink="http://www.w3.org/1999/xlink"
 width="20px" height="20px">
<path fill-rule="evenodd"  fill="currentColor"
 d="M14.909,20.000 L4.758,20.000 C2.130,20.000 -0.000,17.834 -0.000,15.161 L-0.000,4.839 C-0.000,2.166 2.130,-0.000 4.758,-0.000 L14.909,-0.000 C17.536,-0.000 19.667,2.166 19.667,4.839 L19.667,15.161 C19.667,17.834 17.536,20.000 14.909,20.000 ZM9.833,5.806 C7.556,5.806 5.710,7.684 5.710,10.000 C5.710,12.316 7.556,14.194 9.833,14.194 C12.111,14.194 13.957,12.316 13.957,10.000 C13.957,7.684 12.111,5.806 9.833,5.806 ZM15.226,3.226 C14.525,3.226 13.957,3.803 13.957,4.516 C13.957,5.229 14.525,5.806 15.226,5.806 C15.927,5.806 16.495,5.229 16.495,4.516 C16.495,3.803 15.927,3.226 15.226,3.226 Z"/>
</svg>