<svg
 xmlns="http://www.w3.org/2000/svg"
 xmlns:xlink="http://www.w3.org/1999/xlink"
 width="18px" height="18px">
<path fill-rule="evenodd"  fill="currentColor"
 d="M17.000,10.000 L1.000,10.000 C0.448,10.000 -0.000,9.552 -0.000,9.000 C-0.000,8.447 0.448,8.000 1.000,8.000 L17.000,8.000 C17.552,8.000 18.000,8.447 18.000,9.000 C18.000,9.552 17.552,10.000 17.000,10.000 ZM17.000,2.000 L1.000,2.000 C0.448,2.000 -0.000,1.552 -0.000,1.000 C-0.000,0.448 0.448,-0.000 1.000,-0.000 L17.000,-0.000 C17.552,-0.000 18.000,0.448 18.000,1.000 C18.000,1.552 17.552,2.000 17.000,2.000 ZM1.000,16.000 L17.000,16.000 C17.552,16.000 18.000,16.448 18.000,17.000 C18.000,17.552 17.552,18.000 17.000,18.000 L1.000,18.000 C0.448,18.000 -0.000,17.552 -0.000,17.000 C-0.000,16.448 0.448,16.000 1.000,16.000 Z"/>
</svg>