<svg xmlns="http://www.w3.org/2000/svg" viewBox="0 0 20 21"><path d="M10.66,19.36V8.78a3.47,3.47,0,0,0,.5-.2l7-2.84a3.05,3.05,0,0,1,.53-.2V16.08l-1,.41-1,.4-3,1.23c-.34.14-.66.26-1,.41s-.65.25-1,.4l-.49.21a3.13,3.13,0,0,0-.52.22ZM1.36,5.54a1.55,1.55,0,0,1,.36.13L4.28,6.73v3.43a.68.68,0,0,0,1.32.19c.06-.21,0-2.71,0-3,.17,0,1.58.63,1.85.73l1.37.57c.16.06.33.14.48.18V19.36l-8-3.28V5.54ZM10,7.59a7.79,7.79,0,0,0,1-.38l2.83-1.16,1.9-.77c.32-.13.65-.26,1-.4l.47-.19a3.8,3.8,0,0,1,.47-.18l-.46-.2C16.71,4.13,14.14,3,14,3S7.05,6.09,6.63,6.19c.1.15,3.36,1.4,3.37,1.4ZM4.9,5.5c-.15,0-1.54-.61-1.86-.74a5.78,5.78,0,0,0-.65-.25h0l.08,0,.12,0,7.39-3a21.72,21.72,0,0,1,2.22,1L4.9,5.5ZM0,4.68V16.32c0,.71.32.79.82,1L6,19.44c.42.17,3.73,1.56,4,1.56a18.79,18.79,0,0,0,2.71-1c.42-.18.87-.36,1.29-.52l5.19-2.13c.52-.21.85-.27.85-1V4.68c0-.72-.32-.79-.82-1s-.87-.36-1.31-.54c-1.44-.57-3.78-1.5-5.2-2.12A19.72,19.72,0,0,0,10,0,8.18,8.18,0,0,0,8.64.49C6.06,1.51,3.43,2.65.85,3.68.33,3.89,0,4,0,4.68Z" fill-rule="evenodd" fill="currentColor" /></svg>