<svg
 xmlns="http://www.w3.org/2000/svg"
 xmlns:xlink="http://www.w3.org/1999/xlink"
 width="21px" height="21px">
<path fill-rule="evenodd"  fill="currentColor"
 d="M19.235,11.781 L11.784,11.781 L11.784,19.232 C11.784,19.958 11.195,20.547 10.469,20.547 C9.743,20.547 9.154,19.958 9.154,19.232 L9.154,11.781 L1.703,11.781 C0.977,11.781 0.388,11.192 0.388,10.466 C0.388,9.740 0.977,9.151 1.703,9.151 L9.154,9.151 L9.154,1.700 C9.154,0.974 9.743,0.385 10.469,0.385 C11.195,0.385 11.784,0.974 11.784,1.700 L11.784,9.151 L19.235,9.151 C19.961,9.151 20.550,9.740 20.550,10.466 C20.550,11.192 19.961,11.781 19.235,11.781 Z"/>
</svg>