<svg
 xmlns="http://www.w3.org/2000/svg"
 xmlns:xlink="http://www.w3.org/1999/xlink"
 width="15px" height="15px">
<path fill-rule="evenodd"  fill="currentColor"
 d="M14.632,12.859 L11.374,9.600 C11.356,9.583 11.336,9.571 11.318,9.555 C11.959,8.582 12.333,7.418 12.333,6.166 C12.333,2.760 9.572,-0.001 6.167,-0.001 C2.761,-0.001 -0.000,2.760 -0.000,6.166 C-0.000,9.572 2.761,12.332 6.167,12.332 C7.419,12.332 8.583,11.958 9.555,11.318 C9.571,11.336 9.584,11.356 9.601,11.372 L12.860,14.631 C13.349,15.121 14.143,15.121 14.632,14.631 C15.122,14.142 15.122,13.348 14.632,12.859 ZM6.167,10.194 C3.941,10.194 2.138,8.391 2.138,6.166 C2.138,3.941 3.941,2.137 6.167,2.137 C8.392,2.137 10.195,3.941 10.195,6.166 C10.195,8.391 8.392,10.194 6.167,10.194 Z"/>
</svg>