<svg xmlns="http://www.w3.org/2000/svg" viewBox="0 0 22.58 26.59"><path d="M21.38,24.85v-.28a3.31,3.31,0,0,0-3.28-3.34,5.5,5.5,0,0,1-2-.42L12.55,26a1.46,1.46,0,0,1-1.2.64h0a1.46,1.46,0,0,1-1.2-.64L6.56,20.81a5.82,5.82,0,0,1-2,.42,3.31,3.31,0,0,0-3.27,3.34v.28A14.83,14.83,0,0,1,.06,23.73a4.66,4.66,0,0,1,4.38-3.87,3.94,3.94,0,0,0,4-3.66,8.63,8.63,0,0,1-3.23-6A.75.75,0,0,1,5,10a7.61,7.61,0,0,1-.35-1.05,7.85,7.85,0,0,1,.37-5,5.31,5.31,0,0,1,3.29-3A4.21,4.21,0,0,1,9.28.72,5.67,5.67,0,0,1,11.91.08c3.5,0,6.34,3.12,6.34,7a7.53,7.53,0,0,1-.56,2.87.61.61,0,0,1-.17.24,9.53,9.53,0,0,1-1.68,4.48,7,7,0,0,1-1.55,1.57,3.94,3.94,0,0,0,4,3.65,4.66,4.66,0,0,1,4.38,3.87A14.83,14.83,0,0,1,21.38,24.85ZM16.91,7.05c0-3.09-2.24-5.6-5-5.6A4.43,4.43,0,0,0,9.77,2a.69.69,0,0,1-.28.08,2.76,2.76,0,0,0-.77.13C6.51,2.85,5.29,5.67,6,8.51A6.33,6.33,0,0,0,7.49,5.73a.84.84,0,0,1,.75-.63.83.83,0,0,1,.82.53,1.31,1.31,0,0,0,.41.55,1.27,1.27,0,0,0,.75.25h4.59a2.86,2.86,0,0,1,2.09.9A2.72,2.72,0,0,0,16.91,7.05Zm-.65,1.73h0a1.6,1.6,0,0,0-1.45-1H10.22a2.54,2.54,0,0,1-1.55-.52L8.46,7.1a7.85,7.85,0,0,1-2,2.8,8.18,8.18,0,0,0,1.63,4.17,4.15,4.15,0,0,0,3.22,1.73C14.06,15.8,16.26,12.65,16.26,8.78ZM13,16.88a4.78,4.78,0,0,1-1.67.3,4.71,4.71,0,0,1-1.67-.31,5.39,5.39,0,0,1-2,3.24l3.54,5.13a.11.11,0,0,0,.18,0L15,20.11A5.36,5.36,0,0,1,13,16.88Z" transform="translate(-0.06 -0.08)" fill-rule="evenodd" fill="currentColor" /></svg>