<svg xmlns="http://www.w3.org/2000/svg" viewBox="0 0 25.01 14.01"><path d="M21.52,8.9A33.18,33.18,0,0,1,24,11.34a7.22,7.22,0,0,1,.88,1.25c.34.65,0,1.36-.55,1.4H20.65a2.87,2.87,0,0,1-2.32-.93c-.5-.51-1-1.05-1.45-1.58a3.31,3.31,0,0,0-.66-.58.76.76,0,0,0-1.21.29,3.84,3.84,0,0,0-.39,1.69c0,.85-.3,1.07-1.16,1.11a9.43,9.43,0,0,1-5.21-1.11A11.6,11.6,0,0,1,4.74,9.63,44.29,44.29,0,0,1,.12,1.48C-.17.84.05.5.76.48q1.79,0,3.57,0a1.06,1.06,0,0,1,1,.73A21.48,21.48,0,0,0,7.74,5.65a3.73,3.73,0,0,0,.91,1,.55.55,0,0,0,.94-.27,3.06,3.06,0,0,0,.21-.93,13.17,13.17,0,0,0-.06-3.26A1.36,1.36,0,0,0,8.57.93C8.23.87,8.28.74,8.45.54A1.31,1.31,0,0,1,9.56,0h4.12c.65.13.79.42.88,1.06V5.58c0,.25.12,1,.58,1.16s.6-.17.82-.4a14,14,0,0,0,2.32-3.53c.28-.55.52-1.13.75-1.71A.88.88,0,0,1,20,.47h4a2,2,0,0,1,.35,0c.67.11.85.4.65,1a9.82,9.82,0,0,1-1.58,2.71c-.66.9-1.36,1.78-2,2.69s-.56,1.25.19,2Z" transform="translate(0 0.01)" fill-rule="evenodd" fill="currentColor" /></svg>