<svg
 xmlns="http://www.w3.org/2000/svg"
 xmlns:xlink="http://www.w3.org/1999/xlink"
 width="67px" height="39px">
<path fill-rule="evenodd"  fill="rgb(154, 214, 255)"
 d="M65.228,33.067 C64.143,33.118 62.893,33.060 61.791,33.060 C61.730,33.804 61.215,34.880 60.912,35.387 C59.424,37.870 57.227,38.979 54.165,38.979 C50.865,38.979 47.648,35.711 47.432,33.060 L28.116,33.060 C28.059,33.804 27.540,34.880 27.238,35.387 C24.377,40.168 17.540,40.266 14.590,35.306 C14.294,34.810 13.812,33.716 13.761,33.060 C12.014,33.060 9.489,33.373 8.639,32.586 C8.365,32.330 8.041,31.867 8.041,31.389 L8.041,25.343 L1.653,25.343 C0.638,25.343 0.047,24.435 -0.000,23.497 L-0.000,22.282 C0.043,21.450 0.526,20.655 1.535,20.520 C3.347,20.276 20.353,20.783 21.618,20.360 C23.311,19.794 23.340,16.314 21.521,15.792 C20.393,15.468 4.395,15.847 3.368,15.647 C2.529,15.482 2.025,14.757 1.942,13.969 L1.942,12.542 C2.003,11.947 2.313,11.378 2.907,11.046 C3.462,10.733 4.197,10.839 4.993,10.839 L14.395,10.842 C16.016,10.850 17.191,9.550 17.191,7.934 C17.191,6.399 16.308,5.147 14.651,5.158 L7.768,5.161 L8.041,1.674 C8.041,0.882 8.912,-0.000 9.694,-0.000 L43.540,-0.000 L43.540,12.168 C43.540,15.045 46.108,14.483 48.875,14.483 C51.418,14.483 54.928,14.483 57.472,14.483 C60.699,14.483 61.917,14.217 64.165,15.424 C65.663,16.230 67.000,17.871 67.000,20.143 L67.000,31.389 C67.000,32.265 66.132,33.023 65.228,33.067 ZM23.329,29.033 C21.250,26.915 17.443,28.497 17.443,31.645 C17.443,32.549 18.044,33.669 18.552,34.125 C22.043,37.243 26.513,32.283 23.329,29.033 ZM52.094,29.161 C51.611,29.650 51.117,30.715 51.117,31.645 C51.117,34.654 55.094,36.324 57.122,33.997 C60.173,30.496 55.336,25.904 52.094,29.161 ZM48.322,0.386 C49.338,0.470 51.171,1.284 51.964,1.714 C54.021,2.833 55.703,4.723 57.014,6.637 C57.710,7.651 58.217,8.665 58.869,9.650 L48.322,9.650 L48.322,0.386 Z"/>
</svg>