<svg
 xmlns="http://www.w3.org/2000/svg"
 xmlns:xlink="http://www.w3.org/1999/xlink"
 width="50px" height="43px">
<path fill-rule="evenodd"  fill="rgb(154, 214, 255)"
 d="M39.500,14.000 C33.149,14.000 28.000,19.149 28.000,25.500 C28.000,31.851 33.149,37.000 39.500,37.000 L44.987,37.000 L44.987,38.308 C44.987,39.857 44.687,40.763 43.719,41.732 C42.745,42.706 41.831,43.000 40.297,43.000 L6.604,43.000 C5.676,43.000 4.565,42.836 3.894,42.551 C1.798,41.662 -0.000,39.590 -0.000,37.160 L-0.000,5.852 C-0.000,2.799 2.831,0.012 6.126,0.012 L34.745,0.012 C35.383,0.012 36.086,0.200 36.534,0.424 C39.397,1.854 38.861,5.042 38.861,8.150 C40.022,8.150 41.385,8.061 42.433,8.502 C43.076,8.772 43.317,9.019 43.767,9.466 C44.915,10.606 45.047,12.184 45.027,14.000 L39.500,14.000 ZM34.708,4.091 L6.261,4.091 C5.111,4.091 4.171,5.031 4.171,6.181 C4.171,7.331 5.111,8.272 6.261,8.272 L34.708,8.272 L34.708,4.091 Z"/>
<path fill-rule="evenodd"  fill="rgb(154, 214, 255)"
 d="M32.006,25.046 L32.006,25.984 C32.006,29.524 35.359,33.018 38.757,33.018 L48.433,33.018 C49.135,33.018 50.008,32.109 50.008,31.377 L50.008,19.653 C50.008,18.921 49.135,18.012 48.433,18.012 L38.757,18.012 C35.359,18.012 32.006,21.506 32.006,25.046 L32.006,25.046 ZM39.224,23.054 C40.530,23.054 41.588,24.156 41.588,25.516 C41.588,26.876 40.530,27.978 39.224,27.978 C37.919,27.978 36.861,26.876 36.861,25.516 C36.861,24.156 37.919,23.054 39.224,23.054 L39.224,23.054 Z"/>
</svg>