<svg
 xmlns="http://www.w3.org/2000/svg"
 xmlns:xlink="http://www.w3.org/1999/xlink"
 width="48px" height="37px">
<path fill-rule="evenodd"  fill="rgb(154, 214, 255)"
 d="M46.135,36.986 L37.392,36.981 C37.502,35.606 37.741,36.622 37.525,34.631 C37.236,31.977 37.199,32.880 36.059,30.157 C34.491,26.399 33.287,26.344 34.335,26.132 C36.679,25.649 39.870,26.151 41.888,27.356 C44.255,28.773 45.699,30.253 46.949,32.788 C47.432,33.763 47.997,33.545 47.997,34.999 C47.997,36.554 47.859,37.000 46.135,36.986 ZM36.449,23.460 C36.220,23.469 35.268,23.349 34.992,23.294 C33.751,23.037 32.652,22.397 31.825,21.565 C30.409,20.139 29.811,18.828 29.811,16.694 C29.811,14.858 30.763,13.235 31.705,12.292 C33.002,10.995 34.454,10.397 36.574,10.397 C39.975,10.397 42.867,13.488 42.867,16.928 C42.867,20.291 40.086,23.280 36.449,23.460 ZM31.339,30.764 C31.735,31.587 34.323,36.981 31.647,36.981 L1.176,36.981 C0.432,36.981 0.013,36.282 0.013,35.468 C0.013,31.112 1.229,27.967 4.456,25.290 C4.672,25.111 4.778,24.959 4.985,24.771 C5.316,24.458 5.776,24.141 6.171,23.860 C10.915,20.419 17.833,19.730 23.138,22.411 C24.283,22.986 26.043,23.970 26.958,24.886 C27.721,25.654 28.075,25.801 28.967,26.956 C29.280,27.360 29.569,27.696 29.877,28.147 C30.447,28.984 30.875,29.807 31.339,30.764 ZM16.261,18.212 L15.562,18.212 C10.988,18.212 6.819,14.040 6.819,9.463 L6.819,8.529 C6.819,6.924 7.642,4.960 8.552,3.732 C11.168,0.181 15.884,-1.010 19.916,0.912 C23.138,2.449 25.005,5.558 25.005,9.463 C25.005,14.040 20.835,18.212 16.261,18.212 Z"/>
</svg>