<svg
 xmlns="http://www.w3.org/2000/svg"
 xmlns:xlink="http://www.w3.org/1999/xlink"
 width="149px" height="40px">
<path fill-rule="evenodd"  fill="rgb(255, 255, 255)"
 d="M144.073,13.368 L144.073,28.991 L140.463,28.991 L140.463,13.368 L135.536,13.368 L135.536,10.002 L149.000,10.002 L149.000,13.368 L144.073,13.368 ZM129.687,21.025 L122.731,21.025 L122.731,28.991 L119.121,28.991 L119.121,10.002 L122.731,10.002 L122.731,17.659 L129.687,17.659 L129.687,10.002 L133.297,10.002 L133.297,28.991 L129.687,28.991 L129.687,21.025 ZM111.085,24.083 L104.155,24.083 L101.995,28.991 L98.016,28.991 L106.132,10.002 L108.977,10.002 L117.145,28.991 L113.166,28.991 L111.085,24.083 ZM107.554,14.961 L105.473,20.717 L109.636,20.717 L107.554,14.961 ZM88.610,14.550 L83.129,28.991 L79.572,28.991 L87.108,10.002 L90.059,10.002 L97.647,28.991 L94.380,28.991 L88.610,14.550 ZM77.043,28.991 L73.433,28.991 L73.433,13.368 L68.506,13.368 L68.506,10.002 L81.970,10.002 L81.970,13.368 L77.043,13.368 L77.043,28.991 ZM62.077,24.083 L55.147,24.083 L52.987,28.991 L49.008,28.991 L57.123,10.002 L59.969,10.002 L68.137,28.991 L64.159,28.991 L62.077,24.083 ZM58.546,14.961 L56.465,20.717 L60.628,20.717 L58.546,14.961 ZM27.367,21.176 L33.593,27.271 L33.593,3.328 L9.098,3.328 L17.289,11.318 L14.878,13.666 L0.898,0.001 L36.997,0.001 L36.997,35.287 L24.964,23.525 L27.367,21.176 ZM9.625,18.820 L3.403,12.721 L3.403,30.582 L14.916,19.286 L36.098,39.991 L31.285,39.991 L14.916,23.991 L3.403,35.287 L3.403,39.991 L-0.001,39.991 L-0.001,37.639 L-0.001,32.934 L-0.001,4.706 L12.028,16.464 L9.625,18.820 Z"/>
</svg>