<svg width="0" height="0" class="hidden">
  <symbol xmlns="http://www.w3.org/2000/svg" xmlns:xlink="http://www.w3.org/1999/xlink" viewBox="0 0 3px 13px" id="ic_action">
    <path fill-rule="evenodd" fill="currentColor" d="M1.500,8.125 C0.672,8.125 -0.000,7.397 -0.000,6.500 C-0.000,5.603 0.672,4.875 1.500,4.875 C2.328,4.875 3.000,5.603 3.000,6.500 C3.000,7.397 2.328,8.125 1.500,8.125 ZM1.500,3.250 C0.672,3.250 -0.000,2.522 -0.000,1.625 C-0.000,0.727 0.672,-0.000 1.500,-0.000 C2.328,-0.000 3.000,0.727 3.000,1.625 C3.000,2.522 2.328,3.250 1.500,3.250 ZM1.500,9.750 C2.328,9.750 3.000,10.478 3.000,11.375 C3.000,12.272 2.328,13.000 1.500,13.000 C0.672,13.000 -0.000,12.272 -0.000,11.375 C-0.000,10.478 0.672,9.750 1.500,9.750 Z"></path>
  </symbol>
  <symbol xmlns="http://www.w3.org/2000/svg" viewBox="0 0 17.78 15.46" id="ic_arrow">
    <path d="M8.44.54a1.07,1.07,0,0,1,1.42,0,.87.87,0,0,1,0,1.29L4.12,7.08H17.5a.92.92,0,1,1,0,1.84H4.12l5.74,5.24a.88.88,0,0,1,0,1.3,1.07,1.07,0,0,1-1.42,0L1,8.64A.83.83,0,0,1,1,7.36Z" transform="translate(-0.7 -0.27)" fill-rule="evenodd" fill="currentColor"></path>
  </symbol>
  <symbol xmlns="http://www.w3.org/2000/svg" xmlns:xlink="http://www.w3.org/1999/xlink" viewBox="0 0 10px 8px" id="ic_arrow2">
    <path fill-rule="evenodd" fill="currentColor" d="M3.571,-0.015 L4.579,1.117 L2.736,3.197 L10.000,3.197 L10.000,4.802 L2.736,4.802 L4.579,6.874 L3.571,8.014 L0.000,3.999 L3.571,-0.015 Z"></path>
  </symbol>
  <symbol xmlns="http://www.w3.org/2000/svg" xmlns:xlink="http://www.w3.org/1999/xlink" viewBox="0 0 18px 20px" id="ic_calendar">
    <path fill-rule="evenodd" fill="currentColor" d="M16.000,20.000 L2.000,20.000 C0.900,20.000 -0.000,19.100 -0.000,18.000 L-0.000,4.000 C-0.000,2.900 0.900,2.000 2.000,2.000 L3.000,2.000 L3.000,-0.000 L5.000,-0.000 L5.000,2.000 L13.000,2.000 L13.000,-0.000 L15.000,-0.000 L15.000,2.000 L16.000,2.000 C17.100,2.000 18.000,2.900 18.000,4.000 L18.000,18.000 C18.000,19.100 17.100,20.000 16.000,20.000 ZM16.000,4.000 L2.000,4.000 L2.000,6.000 L16.000,6.000 L16.000,4.000 ZM16.000,8.000 L2.000,8.000 L2.000,18.000 L16.000,18.000 L16.000,8.000 ZM6.000,12.000 L4.000,12.000 L4.000,10.000 L6.000,10.000 L6.000,12.000 ZM6.000,16.000 L4.000,16.000 L4.000,14.000 L6.000,14.000 L6.000,16.000 ZM10.000,12.000 L8.000,12.000 L8.000,10.000 L10.000,10.000 L10.000,12.000 ZM10.000,16.000 L8.000,16.000 L8.000,14.000 L10.000,14.000 L10.000,16.000 ZM14.000,12.000 L12.000,12.000 L12.000,10.000 L14.000,10.000 L14.000,12.000 ZM14.000,16.000 L12.000,16.000 L12.000,14.000 L14.000,14.000 L14.000,16.000 Z"></path>
  </symbol>
  <symbol xmlns="http://www.w3.org/2000/svg" viewBox="0 0 19.99 24.01" id="ic_cart">
    <path d="M18.57,6.67A.72.72,0,0,0,17.86,6H14.29V4.49A4.39,4.39,0,0,0,10,0a4.4,4.4,0,0,0-4.29,4.5V6H2.15a.72.72,0,0,0-.71.68L0,23.18a.78.78,0,0,0,.19.57A.67.67,0,0,0,.72,24H19.29a.67.67,0,0,0,.52-.25.78.78,0,0,0,.19-.57ZM7.15,4.49a2.93,2.93,0,0,1,2.86-3,2.93,2.93,0,0,1,2.85,3V6H7.15Zm-5.64,18,1.29-15H5.72V9.2A1.52,1.52,0,0,0,5,10.49,1.46,1.46,0,0,0,6.43,12a1.47,1.47,0,0,0,1.43-1.5A1.52,1.52,0,0,0,7.15,9.2V7.49h5.71V9.2a1.52,1.52,0,0,0-.71,1.29,1.43,1.43,0,1,0,2.85,0,1.52,1.52,0,0,0-.71-1.29V7.49h2.92l1.29,15Z" transform="translate(-0.01 0.01)" fill-rule="evenodd" fill="currentColor"></path>
  </symbol>
  <symbol xmlns="http://www.w3.org/2000/svg" xmlns:xlink="http://www.w3.org/1999/xlink" viewBox="0 0 18px 20px" id="ic_check">
    <path fill-rule="evenodd" fill="currentColor" d="M15.000,20.000 L3.000,20.000 C1.340,20.000 -0.000,18.660 -0.000,17.000 L-0.000,14.000 L3.000,14.000 L3.000,-0.000 L4.500,1.500 L6.000,-0.000 L7.500,1.500 L9.000,-0.000 L10.500,1.500 L12.000,-0.000 L13.500,1.500 L15.000,-0.000 L16.500,1.500 L18.000,-0.000 L18.000,17.000 C18.000,18.660 16.660,20.000 15.000,20.000 ZM2.000,16.000 L2.000,17.000 C2.000,17.550 2.450,18.000 3.000,18.000 L12.000,18.000 L12.000,16.000 L2.000,16.000 ZM16.000,3.000 L5.000,3.000 L5.000,14.000 L14.000,14.000 L14.000,17.000 C14.000,17.550 14.450,18.000 15.000,18.000 C15.550,18.000 16.000,17.550 16.000,17.000 L16.000,3.000 ZM13.000,8.000 L15.000,8.000 L15.000,10.000 L13.000,10.000 L13.000,8.000 ZM13.000,5.000 L15.000,5.000 L15.000,7.000 L13.000,7.000 L13.000,5.000 ZM6.000,8.000 L12.000,8.000 L12.000,10.000 L6.000,10.000 L6.000,8.000 ZM6.000,5.000 L12.000,5.000 L12.000,7.000 L6.000,7.000 L6.000,5.000 Z"></path>
  </symbol>
  <symbol xmlns="http://www.w3.org/2000/svg" viewBox="0 0 11.99 11.99" id="ic_close">
    <path d="M11.68,1.78,7.47,6l4.21,4.2a1.05,1.05,0,0,1-1.49,1.49L6,7.47,1.78,11.68a1,1,0,0,1-1.48,0,1.06,1.06,0,0,1,0-1.49L4.51,6,.3,1.78A1,1,0,0,1,1.78.3L6,4.51,10.19.3a1.06,1.06,0,0,1,1.49,0A1,1,0,0,1,11.68,1.78Z" transform="translate(0.01 0.01)" fill-rule="evenodd" fill="currentColor"></path>
  </symbol>
  <symbol xmlns="http://www.w3.org/2000/svg" xmlns:xlink="http://www.w3.org/1999/xlink" viewBox="0 0 16px 20px" id="ic_doc">
    <path fill-rule="evenodd" fill="currentColor" d="M4.000,14.000 L12.000,14.000 L12.000,16.000 L4.000,16.000 L4.000,14.000 ZM4.000,10.000 L12.000,10.000 L12.000,12.000 L4.000,12.000 L4.000,10.000 ZM10.000,-0.000 L2.000,-0.000 C0.900,-0.000 -0.000,0.900 -0.000,2.000 L-0.000,18.000 C-0.000,19.100 0.890,20.000 1.990,20.000 L14.000,20.000 C15.100,20.000 16.000,19.100 16.000,18.000 L16.000,6.000 L10.000,-0.000 ZM14.000,18.000 L2.000,18.000 L2.000,2.000 L9.000,2.000 L9.000,7.000 L14.000,7.000 L14.000,18.000 Z"></path>
  </symbol>
  <symbol xmlns="http://www.w3.org/2000/svg" xmlns:xlink="http://www.w3.org/1999/xlink" viewBox="0 0 12px 15px" id="ic_download">
    <path fill-rule="evenodd" fill="currentColor" d="M12.000,14.500 L-0.000,14.500 L-0.000,13.000 L12.000,13.000 L12.000,14.500 ZM5.222,8.127 L5.222,0.500 L6.778,0.500 L6.778,8.127 L8.792,6.192 L9.889,7.250 L6.000,11.000 L2.111,7.250 L3.216,6.192 L5.222,8.127 Z"></path>
  </symbol>
  <symbol xmlns="http://www.w3.org/2000/svg" xmlns:xlink="http://www.w3.org/1999/xlink" viewBox="0 0 17px 17px" id="ic_edit">
    <path fill-rule="evenodd" fill="currentColor" d="M16.336,5.275 L6.639,14.974 C6.356,15.256 5.721,15.667 3.290,16.350 C1.996,16.713 0.819,16.975 0.770,16.985 C0.725,16.995 0.679,17.000 0.633,16.999 C0.283,16.999 -0.000,16.716 0.000,16.366 C0.000,16.320 0.005,16.274 0.015,16.229 C0.026,16.180 0.288,15.005 0.651,13.710 C1.333,11.278 1.745,10.643 2.027,10.360 L2.678,9.709 C2.679,9.709 2.679,9.708 2.679,9.708 C2.680,9.707 2.680,9.707 2.680,9.707 L11.724,0.663 C12.238,0.149 12.995,-0.083 13.802,0.026 C14.558,0.127 15.301,0.510 15.894,1.104 C16.488,1.699 16.871,2.441 16.973,3.196 C17.082,4.004 16.849,4.761 16.336,5.275 ZM11.151,3.027 L3.575,10.603 C3.575,10.603 3.575,10.603 3.575,10.603 C3.339,10.839 3.240,11.199 3.296,11.616 C3.360,12.091 3.622,12.589 4.014,12.982 C4.782,13.750 5.870,13.950 6.396,13.425 C6.396,13.425 6.396,13.425 6.396,13.425 L13.972,5.848 C13.317,5.698 12.683,5.353 12.165,4.834 C11.646,4.315 11.301,3.682 11.151,3.027 ZM1.486,15.514 C1.908,15.410 2.423,15.277 2.952,15.128 C3.525,14.967 3.978,14.826 4.343,14.701 C3.901,14.512 3.482,14.240 3.120,13.879 C2.759,13.517 2.487,13.098 2.298,12.657 C2.173,13.022 2.031,13.477 1.870,14.052 C1.722,14.580 1.589,15.094 1.486,15.514 ZM14.999,1.999 C14.235,1.235 13.145,1.033 12.619,1.559 C12.093,2.084 12.295,3.174 13.060,3.939 C13.453,4.332 13.951,4.594 14.426,4.656 C14.844,4.713 15.204,4.614 15.439,4.378 C15.673,4.142 15.773,3.782 15.717,3.365 C15.653,2.890 15.391,2.392 14.999,1.999 Z"></path>
  </symbol>
  <symbol xmlns="http://www.w3.org/2000/svg" viewBox="0 0 19.67 20" id="ic_instagram">
    <path d="M14.91,20H4.76A4.8,4.8,0,0,1,0,15.16V4.84A4.8,4.8,0,0,1,4.76,0H14.91a4.8,4.8,0,0,1,4.76,4.84V15.16A4.8,4.8,0,0,1,14.91,20ZM9.83,5.81A4.19,4.19,0,1,0,14,10,4.16,4.16,0,0,0,9.83,5.81Zm5.4-2.58A1.29,1.29,0,1,0,16.5,4.52,1.27,1.27,0,0,0,15.23,3.23Z" fill-rule="evenodd" fill="currentColor"></path>
  </symbol>
  <symbol xmlns="http://www.w3.org/2000/svg" xmlns:xlink="http://www.w3.org/1999/xlink" viewBox="0 0 20px 20px" id="ic_instruction">
    <path fill-rule="evenodd" fill="currentColor" d="M10.000,-0.002 C7.329,-0.002 4.817,1.039 2.929,2.927 C1.040,4.816 0.000,7.326 0.000,9.997 C0.000,12.668 1.040,15.179 2.929,17.067 C4.817,18.956 7.328,19.996 9.999,19.996 C12.670,19.996 15.181,18.956 17.070,17.067 C20.969,13.169 20.969,6.826 17.070,2.927 C15.182,1.038 12.670,-0.002 10.000,-0.002 ZM14.213,2.249 L11.998,4.466 C11.383,4.245 10.731,4.123 10.058,4.123 C9.396,4.123 8.754,4.241 8.148,4.455 L5.888,2.195 C7.140,1.533 8.543,1.181 10.000,1.181 C11.497,1.181 12.935,1.552 14.213,2.249 ZM6.851,13.047 C5.082,11.279 5.082,8.401 6.851,6.633 C7.708,5.777 8.847,5.305 10.058,5.305 C11.270,5.305 12.409,5.777 13.265,6.633 C15.034,8.401 15.034,11.279 13.265,13.048 C12.409,13.904 11.270,14.376 10.058,14.376 C8.847,14.376 7.708,13.904 6.851,13.047 ZM2.447,5.442 L4.743,7.738 C4.234,9.031 4.217,10.471 4.685,11.777 L2.251,14.210 C1.554,12.932 1.182,11.494 1.182,9.997 C1.182,8.366 1.623,6.803 2.447,5.442 ZM5.543,17.607 L7.984,15.167 C8.637,15.421 9.337,15.558 10.058,15.558 C10.791,15.558 11.501,15.418 12.162,15.156 L14.555,17.549 C13.194,18.373 11.631,18.813 10.000,18.813 C8.407,18.813 6.881,18.393 5.543,17.607 ZM17.801,14.106 L15.441,11.747 C15.895,10.460 15.878,9.044 15.384,7.768 L17.609,5.543 C19.146,8.169 19.210,11.427 17.801,14.106 Z"></path>
  </symbol>
  <symbol xmlns="http://www.w3.org/2000/svg" xmlns:xlink="http://www.w3.org/1999/xlink" viewBox="0 0 15px 14px" id="ic_logout">
    <path fill-rule="evenodd" fill="currentColor" d="M11.250,3.111 L10.192,4.208 L12.127,6.222 L4.500,6.222 L4.500,7.778 L12.127,7.778 L10.192,9.784 L11.250,10.889 L15.000,7.000 L11.250,3.111 ZM1.500,1.555 L7.500,1.555 L7.500,-0.000 L1.500,-0.000 C0.675,-0.000 -0.000,0.700 -0.000,1.555 L-0.000,12.444 C-0.000,13.300 0.675,14.000 1.500,14.000 L7.500,14.000 L7.500,12.444 L1.500,12.444 L1.500,1.555 Z"></path>
  </symbol>
  <symbol xmlns="http://www.w3.org/2000/svg" viewBox="0 0 13 15" id="ic_location">
    <path d="M6.5,15Q0,9.89,0,6.15A6.22,6.22,0,0,1,6.5,0,6.22,6.22,0,0,1,13,6.15Q13,9.89,6.5,15Zm0-11.11A2.3,2.3,0,0,0,4.14,6.11,2.3,2.3,0,0,0,6.5,8.33,2.3,2.3,0,0,0,8.86,6.11,2.3,2.3,0,0,0,6.5,3.89Z" fill-rule="evenodd" fill="currentColor"></path>
  </symbol>
  <symbol xmlns="http://www.w3.org/2000/svg" viewBox="0 0 18 18" id="ic_menu">
    <path d="M17,10H1A1,1,0,0,1,1,8H17a1,1,0,0,1,0,2Zm0-8H1A1,1,0,0,1,1,0H17a1,1,0,0,1,0,2ZM1,16H17a1,1,0,0,1,0,2H1a1,1,0,0,1,0-2Z" fill-rule="evenodd" fill="currentColor"></path>
  </symbol>
  <symbol xmlns="http://www.w3.org/2000/svg" xmlns:xlink="http://www.w3.org/1999/xlink" viewBox="0 0 15px 15px" id="ic_message">
    <path fill-rule="evenodd" fill="currentColor" d="M15.000,10.000 L15.000,1.000 C15.000,0.450 14.550,-0.000 14.000,-0.000 L1.000,-0.000 C0.450,-0.000 -0.000,0.450 -0.000,1.000 L-0.000,15.000 L4.000,11.000 L14.000,11.000 C14.550,11.000 15.000,10.550 15.000,10.000 Z"></path>
  </symbol>
  <symbol xmlns="http://www.w3.org/2000/svg" viewBox="0 0 20 21" id="ic_order">
    <path d="M10.66,19.36V8.78a3.47,3.47,0,0,0,.5-.2l7-2.84a3.05,3.05,0,0,1,.53-.2V16.08l-1,.41-1,.4-3,1.23c-.34.14-.66.26-1,.41s-.65.25-1,.4l-.49.21a3.13,3.13,0,0,0-.52.22ZM1.36,5.54a1.55,1.55,0,0,1,.36.13L4.28,6.73v3.43a.68.68,0,0,0,1.32.19c.06-.21,0-2.71,0-3,.17,0,1.58.63,1.85.73l1.37.57c.16.06.33.14.48.18V19.36l-8-3.28V5.54ZM10,7.59a7.79,7.79,0,0,0,1-.38l2.83-1.16,1.9-.77c.32-.13.65-.26,1-.4l.47-.19a3.8,3.8,0,0,1,.47-.18l-.46-.2C16.71,4.13,14.14,3,14,3S7.05,6.09,6.63,6.19c.1.15,3.36,1.4,3.37,1.4ZM4.9,5.5c-.15,0-1.54-.61-1.86-.74a5.78,5.78,0,0,0-.65-.25h0l.08,0,.12,0,7.39-3a21.72,21.72,0,0,1,2.22,1L4.9,5.5ZM0,4.68V16.32c0,.71.32.79.82,1L6,19.44c.42.17,3.73,1.56,4,1.56a18.79,18.79,0,0,0,2.71-1c.42-.18.87-.36,1.29-.52l5.19-2.13c.52-.21.85-.27.85-1V4.68c0-.72-.32-.79-.82-1s-.87-.36-1.31-.54c-1.44-.57-3.78-1.5-5.2-2.12A19.72,19.72,0,0,0,10,0,8.18,8.18,0,0,0,8.64.49C6.06,1.51,3.43,2.65.85,3.68.33,3.89,0,4,0,4.68Z" fill-rule="evenodd" fill="currentColor"></path>
  </symbol>
  <symbol xmlns="http://www.w3.org/2000/svg" viewBox="0 0 15 15" id="ic_search">
    <path d="M14.63,12.86,11.37,9.6a.1.1,0,0,0,0,0,6.15,6.15,0,1,0-1.76,1.76.1.1,0,0,0,0,0l3.26,3.26a1.25,1.25,0,1,0,1.77-1.77ZM6.17,10.19a4,4,0,1,1,4-4A4,4,0,0,1,6.17,10.19Z" transform="translate(0 0)" fill-rule="evenodd" fill="currentColor"></path>
  </symbol>
  <symbol xmlns="http://www.w3.org/2000/svg" xmlns:xlink="http://www.w3.org/1999/xlink" viewBox="0 0 14px 14px" id="ic_sort">
    <path fill-rule="evenodd" fill="currentColor" d="M5.000,-0.000 L9.000,-0.000 C11.761,-0.000 14.000,2.239 14.000,5.000 L14.000,9.000 C14.000,11.761 11.761,14.000 9.000,14.000 L5.000,14.000 C2.239,14.000 -0.000,11.761 -0.000,9.000 L-0.000,5.000 C-0.000,2.239 2.239,-0.000 5.000,-0.000 Z"></path>
    <path fill-rule="evenodd" fill="rgb(255, 255, 255)" d="M11.864,7.231 L10.492,5.929 L7.973,8.311 L7.973,2.154 L6.028,2.154 L6.028,8.311 L3.518,5.929 L2.137,7.231 L7.000,11.846 L11.864,7.231 Z"></path>
  </symbol>
  <symbol xmlns="http://www.w3.org/2000/svg" viewBox="0 0 32.61 29.99" id="ic_star">
    <path d="M16.68,0,21.9,9.64,33,11.46l-7.86,7.77L26.76,30,16.68,25.17,6.61,30,8.24,19.23.38,11.46,11.47,9.64Z" transform="translate(-0.38)" fill-rule="evenodd" fill="currentColor"></path>
  </symbol>
  <symbol xmlns="http://www.w3.org/2000/svg" viewBox="0 0 12.99 14.98" id="ic_sort_arrow">
    <path d="M12.75,8.47a.88.88,0,0,0,0-1.19.71.71,0,0,0-1.08,0L7.26,12.11V.85A.8.8,0,0,0,6.49,0a.81.81,0,0,0-.77.84V12.11L1.31,7.28a.72.72,0,0,0-1.09,0,.88.88,0,0,0,0,1.19L6,14.74a.71.71,0,0,0,1.08,0Z" transform="translate(0.01 -0.01)" fill-rule="evenodd" fill="currentColor"></path>
  </symbol>
  <symbol xmlns="http://www.w3.org/2000/svg" viewBox="0 0 34.71 31.9" id="ic_star2">
    <path d="M20.18,3.5l5.22,9.63L36.49,15l-7.86,7.77,1.63,10.76L20.18,28.66,10.11,33.49l1.63-10.76L3.88,15,15,13.13Z" transform="translate(-2.83 -2.45)" stroke="#1c1c1c" fill-rule="evenodd" fill="currentColor"></path>
  </symbol>
  <symbol xmlns="http://www.w3.org/2000/svg" xmlns:xlink="http://www.w3.org/1999/xlink" viewBox="0 0 14px 14px" id="ic_upload">
    <path fill-rule="evenodd" fill="currentColor" d="M14.000,14.000 L-0.000,14.000 L-0.000,12.145 L14.000,12.145 L14.000,14.000 ZM8.001,3.570 L8.001,9.714 L6.070,9.714 L6.070,3.570 L3.569,5.970 L2.208,4.658 L7.036,0.008 L11.863,4.658 L10.492,5.970 L8.001,3.570 Z"></path>
  </symbol>
  <symbol xmlns="http://www.w3.org/2000/svg" viewBox="0 0 22.58 26.59" id="ic_user">
    <path d="M21.38,24.85v-.28a3.31,3.31,0,0,0-3.28-3.34,5.5,5.5,0,0,1-2-.42L12.55,26a1.46,1.46,0,0,1-1.2.64h0a1.46,1.46,0,0,1-1.2-.64L6.56,20.81a5.82,5.82,0,0,1-2,.42,3.31,3.31,0,0,0-3.27,3.34v.28A14.83,14.83,0,0,1,.06,23.73a4.66,4.66,0,0,1,4.38-3.87,3.94,3.94,0,0,0,4-3.66,8.63,8.63,0,0,1-3.23-6A.75.75,0,0,1,5,10a7.61,7.61,0,0,1-.35-1.05,7.85,7.85,0,0,1,.37-5,5.31,5.31,0,0,1,3.29-3A4.21,4.21,0,0,1,9.28.72,5.67,5.67,0,0,1,11.91.08c3.5,0,6.34,3.12,6.34,7a7.53,7.53,0,0,1-.56,2.87.61.61,0,0,1-.17.24,9.53,9.53,0,0,1-1.68,4.48,7,7,0,0,1-1.55,1.57,3.94,3.94,0,0,0,4,3.65,4.66,4.66,0,0,1,4.38,3.87A14.83,14.83,0,0,1,21.38,24.85ZM16.91,7.05c0-3.09-2.24-5.6-5-5.6A4.43,4.43,0,0,0,9.77,2a.69.69,0,0,1-.28.08,2.76,2.76,0,0,0-.77.13C6.51,2.85,5.29,5.67,6,8.51A6.33,6.33,0,0,0,7.49,5.73a.84.84,0,0,1,.75-.63.83.83,0,0,1,.82.53,1.31,1.31,0,0,0,.41.55,1.27,1.27,0,0,0,.75.25h4.59a2.86,2.86,0,0,1,2.09.9A2.72,2.72,0,0,0,16.91,7.05Zm-.65,1.73h0a1.6,1.6,0,0,0-1.45-1H10.22a2.54,2.54,0,0,1-1.55-.52L8.46,7.1a7.85,7.85,0,0,1-2,2.8,8.18,8.18,0,0,0,1.63,4.17,4.15,4.15,0,0,0,3.22,1.73C14.06,15.8,16.26,12.65,16.26,8.78ZM13,16.88a4.78,4.78,0,0,1-1.67.3,4.71,4.71,0,0,1-1.67-.31,5.39,5.39,0,0,1-2,3.24l3.54,5.13a.11.11,0,0,0,.18,0L15,20.11A5.36,5.36,0,0,1,13,16.88Z" transform="translate(-0.06 -0.08)" fill-rule="evenodd" fill="currentColor"></path>
  </symbol>
  <symbol xmlns="http://www.w3.org/2000/svg" viewBox="0 0 25.01 14.01" id="ic_vkontakte">
    <path d="M21.52,8.9A33.18,33.18,0,0,1,24,11.34a7.22,7.22,0,0,1,.88,1.25c.34.65,0,1.36-.55,1.4H20.65a2.87,2.87,0,0,1-2.32-.93c-.5-.51-1-1.05-1.45-1.58a3.31,3.31,0,0,0-.66-.58.76.76,0,0,0-1.21.29,3.84,3.84,0,0,0-.39,1.69c0,.85-.3,1.07-1.16,1.11a9.43,9.43,0,0,1-5.21-1.11A11.6,11.6,0,0,1,4.74,9.63,44.29,44.29,0,0,1,.12,1.48C-.17.84.05.5.76.48q1.79,0,3.57,0a1.06,1.06,0,0,1,1,.73A21.48,21.48,0,0,0,7.74,5.65a3.73,3.73,0,0,0,.91,1,.55.55,0,0,0,.94-.27,3.06,3.06,0,0,0,.21-.93,13.17,13.17,0,0,0-.06-3.26A1.36,1.36,0,0,0,8.57.93C8.23.87,8.28.74,8.45.54A1.31,1.31,0,0,1,9.56,0h4.12c.65.13.79.42.88,1.06V5.58c0,.25.12,1,.58,1.16s.6-.17.82-.4a14,14,0,0,0,2.32-3.53c.28-.55.52-1.13.75-1.71A.88.88,0,0,1,20,.47h4a2,2,0,0,1,.35,0c.67.11.85.4.65,1a9.82,9.82,0,0,1-1.58,2.71c-.66.9-1.36,1.78-2,2.69s-.56,1.25.19,2Z" transform="translate(0 0.01)" fill-rule="evenodd" fill="currentColor"></path>
  </symbol>
</svg>