<svg width="0" height="0" class="hidden">
  <symbol xmlns="http://www.w3.org/2000/svg" viewBox="0 0 17.78 15.46" id="ic_arrow">
    <path d="M8.44.54a1.07,1.07,0,0,1,1.42,0,.87.87,0,0,1,0,1.29L4.12,7.08H17.5a.92.92,0,1,1,0,1.84H4.12l5.74,5.24a.88.88,0,0,1,0,1.3,1.07,1.07,0,0,1-1.42,0L1,8.64A.83.83,0,0,1,1,7.36Z" transform="translate(-0.7 -0.27)" fill-rule="evenodd" fill="currentColor"></path>
  </symbol>
  <symbol xmlns="http://www.w3.org/2000/svg" viewBox="0 0 19.99 24.01" id="ic_cart">
    <path d="M18.57,6.67A.72.72,0,0,0,17.86,6H14.29V4.49A4.39,4.39,0,0,0,10,0a4.4,4.4,0,0,0-4.29,4.5V6H2.15a.72.72,0,0,0-.71.68L0,23.18a.78.78,0,0,0,.19.57A.67.67,0,0,0,.72,24H19.29a.67.67,0,0,0,.52-.25.78.78,0,0,0,.19-.57ZM7.15,4.49a2.93,2.93,0,0,1,2.86-3,2.93,2.93,0,0,1,2.85,3V6H7.15Zm-5.64,18,1.29-15H5.72V9.2A1.52,1.52,0,0,0,5,10.49,1.46,1.46,0,0,0,6.43,12a1.47,1.47,0,0,0,1.43-1.5A1.52,1.52,0,0,0,7.15,9.2V7.49h5.71V9.2a1.52,1.52,0,0,0-.71,1.29,1.43,1.43,0,1,0,2.85,0,1.52,1.52,0,0,0-.71-1.29V7.49h2.92l1.29,15Z" transform="translate(-0.01 0.01)" fill-rule="evenodd" fill="currentColor"></path>
  </symbol>
  <symbol xmlns="http://www.w3.org/2000/svg" viewBox="0 0 11.99 11.99" id="ic_close">
    <path d="M11.68,1.78,7.47,6l4.21,4.2a1.05,1.05,0,0,1-1.49,1.49L6,7.47,1.78,11.68a1,1,0,0,1-1.48,0,1.06,1.06,0,0,1,0-1.49L4.51,6,.3,1.78A1,1,0,0,1,1.78.3L6,4.51,10.19.3a1.06,1.06,0,0,1,1.49,0A1,1,0,0,1,11.68,1.78Z" transform="translate(0.01 0.01)" fill-rule="evenodd" fill="currentColor"></path>
  </symbol>
  <symbol xmlns="http://www.w3.org/2000/svg" viewBox="0 0 13 15" id="ic_location">
    <path d="M6.5,15Q0,9.89,0,6.15A6.22,6.22,0,0,1,6.5,0,6.22,6.22,0,0,1,13,6.15Q13,9.89,6.5,15Zm0-11.11A2.3,2.3,0,0,0,4.14,6.11,2.3,2.3,0,0,0,6.5,8.33,2.3,2.3,0,0,0,8.86,6.11,2.3,2.3,0,0,0,6.5,3.89Z" fill-rule="evenodd" fill="currentColor"></path>
  </symbol>
  <symbol xmlns="http://www.w3.org/2000/svg" xmlns:xlink="http://www.w3.org/1999/xlink" viewBox="0 0 15px 15px" id="ic_message">
    <path fill-rule="evenodd" fill="currentColor" d="M15.000,10.000 L15.000,1.000 C15.000,0.450 14.550,-0.000 14.000,-0.000 L1.000,-0.000 C0.450,-0.000 -0.000,0.450 -0.000,1.000 L-0.000,15.000 L4.000,11.000 L14.000,11.000 C14.550,11.000 15.000,10.550 15.000,10.000 Z"></path>
  </symbol>
  <symbol xmlns="http://www.w3.org/2000/svg" viewBox="0 0 12.99 14.98" id="ic_sort_arrow">
    <path d="M12.75,8.47a.88.88,0,0,0,0-1.19.71.71,0,0,0-1.08,0L7.26,12.11V.85A.8.8,0,0,0,6.49,0a.81.81,0,0,0-.77.84V12.11L1.31,7.28a.72.72,0,0,0-1.09,0,.88.88,0,0,0,0,1.19L6,14.74a.71.71,0,0,0,1.08,0Z" transform="translate(0.01 -0.01)" fill-rule="evenodd" fill="currentColor"></path>
  </symbol>
  <symbol xmlns="http://www.w3.org/2000/svg" viewBox="0 0 32.61 29.99" id="ic_star">
    <path d="M16.68,0,21.9,9.64,33,11.46l-7.86,7.77L26.76,30,16.68,25.17,6.61,30,8.24,19.23.38,11.46,11.47,9.64Z" transform="translate(-0.38)" fill-rule="evenodd" fill="currentColor"></path>
  </symbol>
  <symbol xmlns="http://www.w3.org/2000/svg" viewBox="0 0 34.71 31.9" id="ic_star2">
    <path d="M20.18,3.5l5.22,9.63L36.49,15l-7.86,7.77,1.63,10.76L20.18,28.66,10.11,33.49l1.63-10.76L3.88,15,15,13.13Z" transform="translate(-2.83 -2.45)" stroke="#1c1c1c" fill-rule="evenodd" fill="currentColor"></path>
  </symbol>
  <symbol xmlns="http://www.w3.org/2000/svg" viewBox="0 0 19.67 20" id="ic_instagram">
    <path d="M14.91,20H4.76A4.8,4.8,0,0,1,0,15.16V4.84A4.8,4.8,0,0,1,4.76,0H14.91a4.8,4.8,0,0,1,4.76,4.84V15.16A4.8,4.8,0,0,1,14.91,20ZM9.83,5.81A4.19,4.19,0,1,0,14,10,4.16,4.16,0,0,0,9.83,5.81Zm5.4-2.58A1.29,1.29,0,1,0,16.5,4.52,1.27,1.27,0,0,0,15.23,3.23Z" fill-rule="evenodd" fill="currentColor"></path>
  </symbol>
  <symbol xmlns="http://www.w3.org/2000/svg" viewBox="0 0 18 18" id="ic_menu">
    <path d="M17,10H1A1,1,0,0,1,1,8H17a1,1,0,0,1,0,2Zm0-8H1A1,1,0,0,1,1,0H17a1,1,0,0,1,0,2ZM1,16H17a1,1,0,0,1,0,2H1a1,1,0,0,1,0-2Z" fill-rule="evenodd" fill="currentColor"></path>
  </symbol>
  <symbol xmlns="http://www.w3.org/2000/svg" viewBox="0 0 15 15" id="ic_search">
    <path d="M14.63,12.86,11.37,9.6a.1.1,0,0,0,0,0,6.15,6.15,0,1,0-1.76,1.76.1.1,0,0,0,0,0l3.26,3.26a1.25,1.25,0,1,0,1.77-1.77ZM6.17,10.19a4,4,0,1,1,4-4A4,4,0,0,1,6.17,10.19Z" transform="translate(0 0)" fill-rule="evenodd" fill="currentColor"></path>
  </symbol>
  <symbol xmlns="http://www.w3.org/2000/svg" viewBox="0 0 22.58 26.59" id="ic_user">
    <path d="M21.38,24.85v-.28a3.31,3.31,0,0,0-3.28-3.34,5.5,5.5,0,0,1-2-.42L12.55,26a1.46,1.46,0,0,1-1.2.64h0a1.46,1.46,0,0,1-1.2-.64L6.56,20.81a5.82,5.82,0,0,1-2,.42,3.31,3.31,0,0,0-3.27,3.34v.28A14.83,14.83,0,0,1,.06,23.73a4.66,4.66,0,0,1,4.38-3.87,3.94,3.94,0,0,0,4-3.66,8.63,8.63,0,0,1-3.23-6A.75.75,0,0,1,5,10a7.61,7.61,0,0,1-.35-1.05,7.85,7.85,0,0,1,.37-5,5.31,5.31,0,0,1,3.29-3A4.21,4.21,0,0,1,9.28.72,5.67,5.67,0,0,1,11.91.08c3.5,0,6.34,3.12,6.34,7a7.53,7.53,0,0,1-.56,2.87.61.61,0,0,1-.17.24,9.53,9.53,0,0,1-1.68,4.48,7,7,0,0,1-1.55,1.57,3.94,3.94,0,0,0,4,3.65,4.66,4.66,0,0,1,4.38,3.87A14.83,14.83,0,0,1,21.38,24.85ZM16.91,7.05c0-3.09-2.24-5.6-5-5.6A4.43,4.43,0,0,0,9.77,2a.69.69,0,0,1-.28.08,2.76,2.76,0,0,0-.77.13C6.51,2.85,5.29,5.67,6,8.51A6.33,6.33,0,0,0,7.49,5.73a.84.84,0,0,1,.75-.63.83.83,0,0,1,.82.53,1.31,1.31,0,0,0,.41.55,1.27,1.27,0,0,0,.75.25h4.59a2.86,2.86,0,0,1,2.09.9A2.72,2.72,0,0,0,16.91,7.05Zm-.65,1.73h0a1.6,1.6,0,0,0-1.45-1H10.22a2.54,2.54,0,0,1-1.55-.52L8.46,7.1a7.85,7.85,0,0,1-2,2.8,8.18,8.18,0,0,0,1.63,4.17,4.15,4.15,0,0,0,3.22,1.73C14.06,15.8,16.26,12.65,16.26,8.78ZM13,16.88a4.78,4.78,0,0,1-1.67.3,4.71,4.71,0,0,1-1.67-.31,5.39,5.39,0,0,1-2,3.24l3.54,5.13a.11.11,0,0,0,.18,0L15,20.11A5.36,5.36,0,0,1,13,16.88Z" transform="translate(-0.06 -0.08)" fill-rule="evenodd" fill="currentColor"></path>
  </symbol>
  <symbol xmlns="http://www.w3.org/2000/svg" viewBox="0 0 20 21" id="ic_order">
    <path d="M10.66,19.36V8.78a3.47,3.47,0,0,0,.5-.2l7-2.84a3.05,3.05,0,0,1,.53-.2V16.08l-1,.41-1,.4-3,1.23c-.34.14-.66.26-1,.41s-.65.25-1,.4l-.49.21a3.13,3.13,0,0,0-.52.22ZM1.36,5.54a1.55,1.55,0,0,1,.36.13L4.28,6.73v3.43a.68.68,0,0,0,1.32.19c.06-.21,0-2.71,0-3,.17,0,1.58.63,1.85.73l1.37.57c.16.06.33.14.48.18V19.36l-8-3.28V5.54ZM10,7.59a7.79,7.79,0,0,0,1-.38l2.83-1.16,1.9-.77c.32-.13.65-.26,1-.4l.47-.19a3.8,3.8,0,0,1,.47-.18l-.46-.2C16.71,4.13,14.14,3,14,3S7.05,6.09,6.63,6.19c.1.15,3.36,1.4,3.37,1.4ZM4.9,5.5c-.15,0-1.54-.61-1.86-.74a5.78,5.78,0,0,0-.65-.25h0l.08,0,.12,0,7.39-3a21.72,21.72,0,0,1,2.22,1L4.9,5.5ZM0,4.68V16.32c0,.71.32.79.82,1L6,19.44c.42.17,3.73,1.56,4,1.56a18.79,18.79,0,0,0,2.71-1c.42-.18.87-.36,1.29-.52l5.19-2.13c.52-.21.85-.27.85-1V4.68c0-.72-.32-.79-.82-1s-.87-.36-1.31-.54c-1.44-.57-3.78-1.5-5.2-2.12A19.72,19.72,0,0,0,10,0,8.18,8.18,0,0,0,8.64.49C6.06,1.51,3.43,2.65.85,3.68.33,3.89,0,4,0,4.68Z" fill-rule="evenodd" fill="currentColor"></path>
  </symbol>
  <symbol xmlns="http://www.w3.org/2000/svg" viewBox="0 0 25.01 14.01" id="ic_vkontakte">
    <path d="M21.52,8.9A33.18,33.18,0,0,1,24,11.34a7.22,7.22,0,0,1,.88,1.25c.34.65,0,1.36-.55,1.4H20.65a2.87,2.87,0,0,1-2.32-.93c-.5-.51-1-1.05-1.45-1.58a3.31,3.31,0,0,0-.66-.58.76.76,0,0,0-1.21.29,3.84,3.84,0,0,0-.39,1.69c0,.85-.3,1.07-1.16,1.11a9.43,9.43,0,0,1-5.21-1.11A11.6,11.6,0,0,1,4.74,9.63,44.29,44.29,0,0,1,.12,1.48C-.17.84.05.5.76.48q1.79,0,3.57,0a1.06,1.06,0,0,1,1,.73A21.48,21.48,0,0,0,7.74,5.65a3.73,3.73,0,0,0,.91,1,.55.55,0,0,0,.94-.27,3.06,3.06,0,0,0,.21-.93,13.17,13.17,0,0,0-.06-3.26A1.36,1.36,0,0,0,8.57.93C8.23.87,8.28.74,8.45.54A1.31,1.31,0,0,1,9.56,0h4.12c.65.13.79.42.88,1.06V5.58c0,.25.12,1,.58,1.16s.6-.17.82-.4a14,14,0,0,0,2.32-3.53c.28-.55.52-1.13.75-1.71A.88.88,0,0,1,20,.47h4a2,2,0,0,1,.35,0c.67.11.85.4.65,1a9.82,9.82,0,0,1-1.58,2.71c-.66.9-1.36,1.78-2,2.69s-.56,1.25.19,2Z" transform="translate(0 0.01)" fill-rule="evenodd" fill="currentColor"></path>
  </symbol>
</svg>